<svg width="30" height="30" viewBox="0 0 30 30" fill="none" xmlns="http://www.w3.org/2000/svg">
<path d="M9.5 20H10.5687L17.9 12.6687L16.8313 11.6L9.5 18.9312V20ZM8 21.5V18.3125L17.9 8.43125C18.05 8.29375 18.2156 8.1875 18.3969 8.1125C18.5781 8.0375 18.7688 8 18.9688 8C19.1687 8 19.3625 8.0375 19.55 8.1125C19.7375 8.1875 19.9 8.3 20.0375 8.45L21.0688 9.5C21.2188 9.6375 21.3281 9.8 21.3969 9.9875C21.4656 10.175 21.5 10.3625 21.5 10.55C21.5 10.75 21.4656 10.9406 21.3969 11.1219C21.3281 11.3031 21.2188 11.4688 21.0688 11.6188L11.1875 21.5H8ZM20 10.55L18.95 9.5L20 10.55ZM17.3562 12.1438L16.8313 11.6L17.9 12.6687L17.3562 12.1438Z" fill="#566166"/>
</svg>
