<svg width="44" height="44" viewBox="0 0 44 44" fill="none" xmlns="http://www.w3.org/2000/svg">
<rect width="44" height="44" rx="22" fill="#E1E9EE"/>
<path d="M16 28V26.5H18.0625L17.7625 26.2375C17.1125 25.6625 16.6562 25.0063 16.3938 24.2688C16.1313 23.5312 16 22.7875 16 22.0375C16 20.65 16.4156 19.4156 17.2469 18.3344C18.0781 17.2531 19.1625 16.5375 20.5 16.1875V17.7625C19.6 18.0875 18.875 18.6406 18.325 19.4219C17.775 20.2031 17.5 21.075 17.5 22.0375C17.5 22.6 17.6063 23.1469 17.8188 23.6781C18.0312 24.2094 18.3625 24.7 18.8125 25.15L19 25.3375V23.5H20.5V28H16ZM23.5 27.8125V26.2375C24.4 25.9125 25.125 25.3594 25.675 24.5781C26.225 23.7969 26.5 22.925 26.5 21.9625C26.5 21.4 26.3937 20.8531 26.1812 20.3219C25.9688 19.7906 25.6375 19.3 25.1875 18.85L25 18.6625V20.5H23.5V16H28V17.5H25.9375L26.2375 17.7625C26.85 18.375 27.2969 19.0406 27.5781 19.7594C27.8594 20.4781 28 21.2125 28 21.9625C28 23.35 27.5844 24.5844 26.7531 25.6656C25.9219 26.7469 24.8375 27.4625 23.5 27.8125Z" fill="#2A3439"/>
</svg>
