<svg width="64" height="64" viewBox="0 0 64 64" fill="none" xmlns="http://www.w3.org/2000/svg">
<rect width="64" height="64" rx="32" fill="#FF8B9A" fill-opacity="0.2"/>
<path d="M28.75 37.625L32 34.375L35.25 37.625L37 35.875L33.75 32.625L37 29.375L35.25 27.625L32 30.875L28.75 27.625L27 29.375L30.25 32.625L27 35.875L28.75 37.625ZM25.75 43.25C25.0625 43.25 24.474 43.0052 23.9844 42.5156C23.4948 42.026 23.25 41.4375 23.25 40.75V24.5H22V22H28.25V20.75H35.75V22H42V24.5H40.75V40.75C40.75 41.4375 40.5052 42.026 40.0156 42.5156C39.526 43.0052 38.9375 43.25 38.25 43.25H25.75ZM38.25 24.5H25.75V40.75H38.25V24.5ZM25.75 24.5V40.75V24.5Z" fill="#9E3F4E"/>
</svg>
