<svg width="18" height="13" viewBox="0 0 18 13" fill="none" xmlns="http://www.w3.org/2000/svg">
<path d="M1.6 12.8C1.16 12.8 0.783333 12.6433 0.47 12.33C0.156667 12.0167 0 11.64 0 11.2V1.6C0 1.16 0.156667 0.783333 0.47 0.47C0.783333 0.156667 1.16 0 1.6 0H6.4L8 1.6H14.4C14.84 1.6 15.2167 1.75667 15.53 2.07C15.8433 2.38333 16 2.76 16 3.2H7.34L5.74 1.6H1.6V11.2L3.52 4.8H17.2L15.14 11.66C15.0333 12.0067 14.8367 12.2833 14.55 12.49C14.2633 12.6967 13.9467 12.8 13.6 12.8H1.6ZM3.28 11.2H13.6L15.04 6.4H4.72L3.28 11.2ZM3.28 11.2L4.72 6.4L3.28 11.2ZM1.6 3.2V1.6V3.2Z" fill="#566166" fill-opacity="0.6"/>
</svg>
